<svg width="21" height="21" viewBox="0 0 21 21" fill="none" xmlns="http://www.w3.org/2000/svg">
<path d="M12.9098 10.8018L20.0695 3.6587C20.3831 3.34517 20.5592 2.91992 20.5592 2.47651C20.5592 2.0331 20.3831 1.60786 20.0695 1.29432C19.756 0.980785 19.3308 0.804642 18.8874 0.804642C18.444 0.804642 18.0187 0.980785 17.7052 1.29432L10.5621 8.45407L3.41898 1.29432C3.10544 0.980785 2.68019 0.804642 2.23678 0.804642C1.79338 0.804642 1.36813 0.980785 1.05459 1.29432C0.741057 1.60786 0.564914 2.0331 0.564914 2.47651C0.564914 2.91992 0.741057 3.34517 1.05459 3.6587L8.21434 10.8018L1.05459 17.9449C0.898531 18.0997 0.77466 18.2838 0.690128 18.4867C0.605595 18.6896 0.562073 18.9073 0.562073 19.1271C0.562073 19.3469 0.605595 19.5645 0.690128 19.7674C0.77466 19.9703 0.898531 20.1545 1.05459 20.3093C1.20938 20.4653 1.39354 20.5892 1.59644 20.6737C1.79935 20.7583 2.01698 20.8018 2.23678 20.8018C2.45659 20.8018 2.67422 20.7583 2.87713 20.6737C3.08003 20.5892 3.26419 20.4653 3.41898 20.3093L10.5621 13.1495L17.7052 20.3093C17.86 20.4653 18.0441 20.5892 18.247 20.6737C18.4499 20.7583 18.6676 20.8018 18.8874 20.8018C19.1072 20.8018 19.3248 20.7583 19.5277 20.6737C19.7306 20.5892 19.9148 20.4653 20.0695 20.3093C20.2256 20.1545 20.3495 19.9703 20.434 19.7674C20.5186 19.5645 20.5621 19.3469 20.5621 19.1271C20.5621 18.9073 20.5186 18.6896 20.434 18.4867C20.3495 18.2838 20.2256 18.0997 20.0695 17.9449L12.9098 10.8018Z" fill="#A1A1A1"/>
</svg>
