<svg width="30" height="24" viewBox="0 0 30 24" fill="none" xmlns="http://www.w3.org/2000/svg">
<path d="M25.3921 1.94129C23.4508 1.04167 21.3832 0.378789 19.2052 0C18.9369 0.473487 18.6212 1.12058 18.416 1.64142C16.1117 1.2942 13.8232 1.2942 11.5663 1.64142C11.3453 1.12058 11.0296 0.473487 10.7613 0C8.5833 0.378789 6.51574 1.04167 4.57445 1.94129C0.660291 7.84409 -0.397162 13.6048 0.123673 19.2709C2.72785 21.2122 5.23733 22.3801 7.71524 23.1535C8.33077 22.317 8.86739 21.4174 9.34088 20.4862C8.44125 20.1547 7.58898 19.7286 6.78405 19.2393C7.00501 19.0815 7.21019 18.9079 7.41537 18.7501C12.3554 21.0544 17.7058 21.0544 22.5827 18.7501C22.7879 18.9237 22.9931 19.0815 23.214 19.2393C22.4091 19.7286 21.541 20.139 20.6572 20.4862C21.1307 21.4174 21.6673 22.317 22.2828 23.1535C24.7608 22.3801 27.286 21.2122 29.8744 19.2709C30.4899 12.6894 28.817 6.99182 25.4236 1.94129H25.3921ZM10.0038 15.7987C8.52017 15.7987 7.30489 14.4256 7.30489 12.7368C7.30489 11.048 8.4886 9.67491 10.0038 9.67491C11.5189 9.67491 12.7184 11.048 12.7026 12.7368C12.7026 14.4098 11.5189 15.7987 10.0038 15.7987ZM19.9628 15.7987C18.4792 15.7987 17.2639 14.4256 17.2639 12.7368C17.2639 11.048 18.4476 9.67491 19.9628 9.67491C21.4779 9.67491 22.6774 11.048 22.6616 12.7368C22.6616 14.4098 21.4779 15.7987 19.9628 15.7987Z" fill="#C9C9C9"/>
</svg>
