<svg width="21" height="15" viewBox="0 0 21 15" fill="none" xmlns="http://www.w3.org/2000/svg">
<path d="M19.9847 6.84336C18.1018 3.16941 14.374 0.683643 10.1056 0.683643C5.83717 0.683643 2.10835 3.17114 0.226405 6.84371C0.146975 7.00083 0.105591 7.17443 0.105591 7.35048C0.105591 7.52654 0.146975 7.70013 0.226405 7.85725C2.10939 11.5312 5.83717 14.017 10.1056 14.017C14.374 14.017 18.1028 11.5295 19.9847 7.85691C20.0642 7.69979 20.1056 7.52619 20.1056 7.35014C20.1056 7.17408 20.0642 7.00049 19.9847 6.84336ZM10.1056 12.3503C9.11667 12.3503 8.14997 12.0571 7.32772 11.5077C6.50547 10.9583 5.86461 10.1774 5.48617 9.26373C5.10774 8.3501 5.00872 7.34476 5.20165 6.37486C5.39457 5.40495 5.87078 4.51404 6.57004 3.81478C7.2693 3.11551 8.16022 2.63931 9.13012 2.44638C10.1 2.25346 11.1054 2.35247 12.019 2.73091C12.9326 3.10935 13.7135 3.75021 14.2629 4.57246C14.8123 5.3947 15.1056 6.3614 15.1056 7.35031C15.1059 8.00701 14.9768 8.65733 14.7256 9.2641C14.4745 9.87088 14.1062 10.4222 13.6418 10.8866C13.1775 11.3509 12.6261 11.7192 12.0194 11.9704C11.4126 12.2215 10.7623 12.3506 10.1056 12.3503ZM10.1056 4.01698C9.80805 4.02113 9.51244 4.0654 9.22675 4.14857C9.46225 4.4686 9.57525 4.86242 9.54528 5.25862C9.51531 5.65482 9.34434 6.02717 9.06338 6.30812C8.78243 6.58908 8.41009 6.76005 8.01389 6.79002C7.61769 6.81999 7.22386 6.70698 6.90384 6.47149C6.7216 7.14287 6.7545 7.8545 6.99789 8.50621C7.24129 9.15792 7.68293 9.7169 8.26065 10.1045C8.83837 10.492 9.52308 10.6887 10.2184 10.6667C10.9137 10.6447 11.5847 10.4053 12.1368 9.98201C12.6889 9.55876 13.0944 8.97302 13.2961 8.30725C13.4979 7.64148 13.4858 6.92919 13.2616 6.27065C13.0373 5.6121 12.6122 5.04046 12.0461 4.63618C11.4799 4.2319 10.8012 4.01534 10.1056 4.01698Z" fill="black"/>
</svg>
